<svg width="128" height="28" viewBox="0 0 128 28" fill="none" xmlns="http://www.w3.org/2000/svg">
<path d="M53.0053 16.5172C53.0053 20.0537 50.0745 22.5001 45.6903 22.5001C41.3061 22.5001 38.1572 19.8599 38.1572 16.2266H41.8147C41.8147 18.0917 43.4861 19.4239 45.8114 19.4239C47.7976 19.4239 49.0329 18.4308 49.0329 17.0501C49.0329 15.4272 47.1678 15.185 45.0363 14.9186C41.621 14.4826 38.3268 13.7559 38.3268 9.73506C38.3268 6.36819 41.2092 4.04287 45.3754 4.04287C49.5658 4.04287 52.5935 6.56197 52.5935 10.0257H49.0571C49.0813 8.33018 47.5554 7.11908 45.4723 7.11908C43.5587 7.11908 42.2992 8.01529 42.2992 9.27484C42.2992 10.8977 44.0189 11.1399 46.1989 11.4306C49.5416 11.8182 53.0053 12.5448 53.0053 16.5172ZM55.5799 17.8737V12.2542H53.8359V9.49284H55.7494L56.1612 6.36819H59.2132V9.49284H62.0229V12.2542H59.2132V17.5103C59.2132 18.5519 59.8429 19.2543 60.8603 19.2543C61.1994 19.2543 61.7323 19.1817 62.144 19.0606V21.9914C61.3932 22.2336 60.4243 22.379 59.6492 22.379C57.1785 22.379 55.5799 20.5139 55.5799 17.8737ZM70.3309 19.1817C72.2202 19.1817 73.5767 17.7041 73.5767 15.6937C73.5767 13.6833 72.2202 12.2057 70.3309 12.2057C68.4416 12.2057 67.0851 13.6833 67.0851 15.6937C67.0851 17.7041 68.4416 19.1817 70.3309 19.1817ZM73.6009 11.2126V9.49284H77.2342V21.8945H73.6009V20.1748C72.632 21.5554 71.1545 22.379 69.3862 22.379C65.8983 22.379 63.4518 19.6177 63.4518 15.6937C63.4518 11.7697 65.8983 9.0084 69.3862 9.0084C71.1545 9.0084 72.632 9.83195 73.6009 11.2126ZM79.6511 9.49284H83.1391V11.0673C83.8657 9.83195 85.1011 9.03262 86.4575 9.03262C86.9419 9.03262 87.4506 9.15373 87.935 9.34751V12.569C87.2568 12.2784 86.4333 12.133 85.9004 12.133C84.326 12.133 83.2844 13.441 83.2844 15.3061V21.8945H79.6511V9.49284ZM90.2534 17.8737V12.2542H88.5094V9.49284H90.4229L90.8347 6.36819H93.8867V9.49284H96.6964V12.2542H93.8867V17.5103C93.8867 18.5519 94.5164 19.2543 95.5338 19.2543C95.8729 19.2543 96.4058 19.1817 96.8175 19.0606V21.9914C96.0667 22.2336 95.0978 22.379 94.3227 22.379C91.852 22.379 90.2534 20.5139 90.2534 17.8737ZM110.6 21.8945H107.063V20.199C106.191 21.5554 104.738 22.379 103.115 22.379C100.33 22.379 98.4402 20.2232 98.4402 17.2439V9.49284H102.074V16.6141C102.074 18.1159 102.946 19.1817 104.375 19.1817C105.804 19.1817 106.966 18.0432 106.966 16.4688V9.49284H110.6V21.8945ZM119.757 19.109C121.647 19.109 123.003 17.6557 123.003 15.6937C123.003 13.7075 121.622 12.2784 119.757 12.2784C117.868 12.2784 116.512 13.7317 116.512 15.6937C116.512 17.6557 117.868 19.109 119.757 19.109ZM126.636 15.6937C126.636 19.6177 124.214 22.379 120.75 22.379C119.055 22.379 117.65 21.6523 116.657 20.3928V27.4656H113.024V9.49284H116.608V10.9946C117.602 9.75928 119.031 9.0084 120.75 9.0084C124.19 9.0084 126.636 11.7697 126.636 15.6937Z" fill="white"/>
<path d="M0.959912 20.9227L0.785895 20.7438C0.105412 20.0441 0.11422 18.9273 0.805656 18.2385L8.2996 10.7727C8.9941 10.0808 10.117 10.0797 10.8129 10.7702L14.4031 14.3326L20.1532 8.5073H16.1854C15.2011 8.5073 14.4031 7.70932 14.4031 6.72497V6.60654C14.4031 5.62219 15.2011 4.82422 16.1854 4.82422H24.7975C25.7819 4.82422 26.5798 5.62219 26.5798 6.60654V15.2186C26.5798 16.2029 25.7819 17.0009 24.7975 17.0009H24.5287C23.5444 17.0009 22.7464 16.2029 22.7464 15.2186V11.1756L15.8859 18.0053C15.0617 18.8257 13.7331 18.8373 12.8948 18.0315L10.0615 15.308C9.78056 15.038 9.33487 15.0435 9.06075 15.3204L3.50429 20.9339C2.8025 21.6429 1.65545 21.6378 0.959912 20.9227Z" fill="white"/>
</svg>
