<svg width="151" height="32" viewBox="0 0 151 32" fill="none" xmlns="http://www.w3.org/2000/svg">
<path d="M39.0162 5.46164H44.035L49.2545 22.3247L54.4453 5.46164H59.4641L52.9254 25.8809H45.5836L39.0162 5.46164ZM63.3133 17.1625H70.5404C70.2823 15.2984 68.8483 13.9218 66.8982 13.9218C65.0054 13.9218 63.6862 15.2124 63.3133 17.1625ZM58.8968 18.4244C58.8968 13.8358 62.2522 10.6238 66.9842 10.6238C71.6875 10.6238 74.8995 13.8358 74.8995 18.4818C74.8995 18.8546 74.8995 19.4568 74.8422 19.7723L63.342 19.7436C63.7148 21.8085 65.1201 23.1564 67.0702 23.1564C68.6762 23.1564 70.0241 22.2387 70.483 20.9481L74.3546 21.493C73.6377 24.3609 70.5404 26.4544 66.9555 26.4544C62.2235 26.4544 58.8968 23.1564 58.8968 18.4244ZM77.0964 11.1974H81.2834V13.1762C82.3159 11.5989 84.0366 10.6238 85.9581 10.6238C89.2561 10.6238 91.4931 13.1762 91.4931 16.7037V25.8809H87.1913V17.4493C87.1913 15.6712 86.1588 14.4094 84.4668 14.4094C82.7747 14.4094 81.3982 15.7573 81.3982 17.6214V25.8809H77.0964V11.1974ZM95.1946 21.1202V14.4667H93.1298V11.1974H95.3954L95.8829 7.49782H99.4964V11.1974H102.823V14.4667H99.4964V20.69C99.4964 21.9232 100.242 22.7549 101.447 22.7549C101.848 22.7549 102.479 22.6688 102.967 22.5255V25.9956C102.078 26.2824 100.93 26.4544 100.013 26.4544C97.0874 26.4544 95.1946 24.2462 95.1946 21.1202ZM119.284 25.8809H115.097V23.8734C114.065 25.4794 112.344 26.4544 110.423 26.4544C107.125 26.4544 104.888 23.902 104.888 20.3746V11.1974H109.19V19.6289C109.19 21.407 110.222 22.6688 111.914 22.6688C113.606 22.6688 114.983 21.3209 114.983 19.4568V11.1974H119.284V25.8809ZM122.154 11.1974H126.284V13.0615C127.144 11.5989 128.607 10.6525 130.213 10.6525C130.787 10.6525 131.389 10.7959 131.962 11.0253V14.8396C131.159 14.4954 130.184 14.3233 129.553 14.3233C127.689 14.3233 126.456 15.872 126.456 18.0803V25.8809H122.154V11.1974ZM137.346 17.1625H144.573C144.315 15.2984 142.881 13.9218 140.931 13.9218C139.038 13.9218 137.719 15.2124 137.346 17.1625ZM132.929 18.4244C132.929 13.8358 136.285 10.6238 141.017 10.6238C145.72 10.6238 148.932 13.8358 148.932 18.4818C148.932 18.8546 148.932 19.4568 148.875 19.7723L137.374 19.7436C137.747 21.8085 139.153 23.1564 141.103 23.1564C142.709 23.1564 144.057 22.2387 144.515 20.9481L148.387 21.493C147.67 24.3609 144.573 26.4544 140.988 26.4544C136.256 26.4544 132.929 23.1564 132.929 18.4244Z" fill="#969696"/>
<path fill-rule="evenodd" clip-rule="evenodd" d="M11.7235 0.658203C11.192 0.658203 10.7612 1.08904 10.7612 1.62051V10.7623H10.7605C5.18009 10.7623 0.65625 15.2861 0.65625 20.8666C0.65625 26.447 5.18008 30.9708 10.7605 30.9708H19.9025C20.4339 30.9708 20.8648 30.54 20.8648 30.0085V20.8667H20.8654C26.4459 20.8667 30.9697 16.3429 30.9697 10.7625C30.9697 5.18204 26.4459 0.658203 20.8654 0.658203H11.7235ZM20.8648 20.8667V11.7246C20.8648 11.1932 20.4339 10.7623 19.9025 10.7623H10.7612V19.9044C10.7612 20.4359 11.192 20.8667 11.7235 20.8667H20.8648Z" fill="#969696"/>
<path d="M11.6117 0.658203C11.1401 0.658203 10.7578 1.0405 10.7578 1.51208L10.7578 10.7625H20.0082C20.4798 10.7625 20.8621 11.1448 20.8621 11.6164L20.8621 20.8667C26.4425 20.8667 30.9664 16.3429 30.9664 10.7625C30.9664 5.18204 26.4425 0.658203 20.8621 0.658203H11.6117Z" fill="#969696"/>
</svg>
