<svg width="157" height="30" viewBox="0 0 157 30" fill="none" xmlns="http://www.w3.org/2000/svg">
<path d="M42.288 16.349V20.3326H50.4426V23.4961H38.4918V6.8118H50.2083V9.97526H42.288V13.5371H49.271V16.349H42.288ZM52.357 11.4984H55.7782V13.1153C56.6218 11.8265 58.0278 11.0297 59.5978 11.0297C62.2926 11.0297 64.1204 13.1153 64.1204 15.9975V23.4961H60.6054V16.6068C60.6054 15.1539 59.7618 14.1229 58.3793 14.1229C56.9967 14.1229 55.872 15.2242 55.872 16.7474V23.4961H52.357V11.4984ZM67.1449 19.6062V14.1698H65.4577V11.4984H67.3089L67.7073 8.47555H70.6598V11.4984H73.3781V14.1698H70.6598V19.2547C70.6598 20.2623 71.2691 20.9419 72.2533 20.9419C72.5813 20.9419 73.0969 20.8716 73.4952 20.7544V23.5898C72.7688 23.8242 71.8315 23.9648 71.0816 23.9648C68.6915 23.9648 67.1449 22.1604 67.1449 19.6062ZM78.3691 16.3725H84.2742C84.0633 14.8493 82.8917 13.7245 81.2982 13.7245C79.7516 13.7245 78.6737 14.779 78.3691 16.3725ZM74.7604 17.4035C74.7604 13.6542 77.5021 11.0297 81.3685 11.0297C85.2115 11.0297 87.836 13.6542 87.836 17.4504C87.836 17.755 87.836 18.2471 87.7892 18.5049L78.3925 18.4814C78.6972 20.1686 79.8454 21.27 81.4388 21.27C82.7511 21.27 83.8524 20.5201 84.2273 19.4656L87.3908 19.9108C86.805 22.2541 84.2742 23.9648 81.3451 23.9648C77.4786 23.9648 74.7604 21.27 74.7604 17.4035ZM89.631 11.4984H93.0054V13.0215C93.7084 11.8265 94.9035 11.0532 96.2157 11.0532C96.6844 11.0532 97.1765 11.1703 97.6451 11.3578V14.4744C96.989 14.1932 96.1923 14.0526 95.6767 14.0526C94.1536 14.0526 93.146 15.318 93.146 17.1223V23.4961H89.631V11.4984ZM105.488 20.8013C107.316 20.8013 108.628 19.3953 108.628 17.4972C108.628 15.5757 107.293 14.1932 105.488 14.1932C103.661 14.1932 102.348 15.5992 102.348 17.4972C102.348 19.3953 103.661 20.8013 105.488 20.8013ZM112.143 17.4972C112.143 21.2934 109.8 23.9648 106.449 23.9648C104.809 23.9648 103.45 23.2618 102.489 22.0432V28.8857H98.974V11.4984H102.442V12.9512C103.403 11.7562 104.785 11.0297 106.449 11.0297C109.777 11.0297 112.143 13.7011 112.143 17.4972ZM113.946 11.4984H117.321V13.0215C118.024 11.8265 119.219 11.0532 120.531 11.0532C121 11.0532 121.492 11.1703 121.96 11.3578V14.4744C121.304 14.1932 120.508 14.0526 119.992 14.0526C118.469 14.0526 117.461 15.318 117.461 17.1223V23.4961H113.946V11.4984ZM123.571 11.4984H127.086V23.4961H123.571V11.4984ZM125.328 9.90496C124.133 9.90496 123.289 9.0848 123.289 7.91315C123.289 6.76494 124.133 5.94478 125.328 5.94478C126.523 5.94478 127.367 6.76494 127.367 7.91315C127.367 9.0848 126.523 9.90496 125.328 9.90496ZM140.506 19.6999C140.506 22.2073 138.209 24.0116 134.859 24.0116C131.625 24.0116 129.281 22.1135 129.305 19.4891H132.281C132.281 20.6841 133.382 21.5277 134.905 21.5277C136.194 21.5277 137.132 20.9185 137.132 20.1217C137.132 19.1141 135.772 18.8329 134.32 18.6923C131.648 18.3643 129.422 17.9425 129.422 15.0134C129.422 12.6701 131.648 10.9829 134.577 10.9829C137.788 10.9829 140.108 12.7169 140.108 15.1305H137.014C137.014 14.1463 135.96 13.4668 134.554 13.4668C133.476 13.4668 132.609 14.0292 132.586 14.8259C132.586 15.6226 133.64 15.8569 134.999 16.0678C137.436 16.3959 140.506 16.888 140.506 19.6999ZM145.365 16.3725H151.271C151.06 14.8493 149.888 13.7245 148.295 13.7245C146.748 13.7245 145.67 14.779 145.365 16.3725ZM141.757 17.4035C141.757 13.6542 144.498 11.0297 148.365 11.0297C152.208 11.0297 154.832 13.6542 154.832 17.4504C154.832 17.755 154.832 18.2471 154.786 18.5049L145.389 18.4814C145.694 20.1686 146.842 21.27 148.435 21.27C149.747 21.27 150.849 20.5201 151.224 19.4656L154.387 19.9108C153.801 22.2541 151.271 23.9648 148.341 23.9648C144.475 23.9648 141.757 21.27 141.757 17.4035Z" fill="white"/>
<g clip-path="url(#clip0_10827_5273)">
<path fill-rule="evenodd" clip-rule="evenodd" d="M0.526021 19.5059C0.526021 20.3106 1.34103 20.8591 2.08646 20.556L10.4877 17.1409C10.9149 16.9672 11.1944 16.552 11.1944 16.0908L11.1944 12.2955C11.1944 11.8343 11.4738 11.419 11.901 11.2454L20.4418 7.77353C20.869 7.59985 21.1484 7.18463 21.1484 6.72342L21.1484 2.28821C21.1484 1.66216 20.6409 1.15464 20.0149 1.15464L11.6137 1.15464C10.9876 1.15464 10.4801 1.66216 10.4801 2.28821L10.4801 9.38846C10.4801 10.0145 9.97259 10.522 9.34654 10.522L1.65958 10.522C1.03353 10.522 0.526021 11.0295 0.526021 11.6556L0.526021 19.5059Z" fill="white"/>
<path fill-rule="evenodd" clip-rule="evenodd" d="M28.6927 8.13666C28.6927 7.33199 27.8777 6.78352 27.1323 7.08654L18.7311 10.5017C18.3038 10.6754 18.0244 11.0906 18.0244 11.5518V15.3471C18.0244 15.8083 17.745 16.2235 17.3177 16.3972L8.777 19.869C8.34974 20.0427 8.07031 20.458 8.07031 20.9192V25.3544C8.07031 25.9804 8.57783 26.4879 9.20387 26.4879H17.6051C18.2311 26.4879 18.7387 25.9804 18.7387 25.3544V18.2541C18.7387 17.6281 19.2462 17.1206 19.8722 17.1206H27.5592C28.1852 17.1206 28.6927 16.613 28.6927 15.987V8.13666Z" fill="white"/>
</g>
<defs>
<clipPath id="clip0_10827_5273">
<rect width="29.2282" height="29.2282" fill="white"/>
</clipPath>
</defs>
</svg>
