<svg width="29" height="28" viewBox="0 0 29 28" fill="none" xmlns="http://www.w3.org/2000/svg">
<g clip-path="url(#clip0_10699_5257)">
<path fill-rule="evenodd" clip-rule="evenodd" d="M25.4044 8.13763L24.5733 6.69544C23.8702 5.47513 22.312 5.05415 21.09 5.75435V5.75435C20.5084 6.09701 19.8143 6.19423 19.1608 6.02456C18.5074 5.8549 17.9483 5.43228 17.6068 4.84992C17.3871 4.47976 17.269 4.05815 17.2646 3.62772V3.62772C17.2844 2.93764 17.024 2.26892 16.5428 1.7739C16.0616 1.27888 15.4005 0.999716 14.7102 1H13.0358C12.3594 0.999992 11.7109 1.2695 11.2338 1.7489C10.7567 2.2283 10.4903 2.87805 10.4936 3.55439V3.55439C10.4735 4.9508 9.33575 6.07226 7.9392 6.07212C7.50877 6.06765 7.08716 5.9496 6.717 5.7299V5.7299C5.49501 5.0297 3.93685 5.45068 3.23374 6.671L2.34153 8.13763C1.63928 9.35642 2.05453 10.9136 3.2704 11.6209V11.6209C4.06074 12.0772 4.54761 12.9205 4.54761 13.8331C4.54761 14.7457 4.06074 15.589 3.2704 16.0452V16.0452C2.05607 16.7478 1.64037 18.3012 2.34153 19.5163V19.5163L3.18485 20.9707C3.51428 21.5651 4.06702 22.0038 4.72074 22.1896C5.37447 22.3754 6.07528 22.293 6.66811 21.9607V21.9607C7.25089 21.6206 7.94537 21.5275 8.59717 21.7019C9.24898 21.8763 9.8041 22.3039 10.1392 22.8896C10.3588 23.2597 10.4769 23.6813 10.4814 24.1117V24.1117C10.4814 25.5225 11.625 26.6661 13.0358 26.6661H14.7102C16.1162 26.6662 17.2578 25.5299 17.2646 24.124V24.124C17.2613 23.4455 17.5294 22.7939 18.0091 22.3141C18.4889 21.8344 19.1405 21.5663 19.819 21.5696C20.2483 21.5811 20.6682 21.6986 21.0411 21.9118V21.9118C22.2599 22.614 23.8171 22.1988 24.5244 20.9829V20.9829L25.4044 19.5163C25.745 18.9316 25.8385 18.2353 25.6642 17.5815C25.4898 16.9277 25.062 16.3704 24.4755 16.033V16.033C23.889 15.6956 23.4612 15.1383 23.2869 14.4845C23.1125 13.8307 23.206 13.1344 23.5467 12.5498C23.7682 12.163 24.0888 11.8424 24.4755 11.6209V11.6209C25.6841 10.914 26.0984 9.3659 25.4044 8.14985V8.14985V8.13763Z" stroke="#090909" stroke-width="2.00288" stroke-linecap="round" stroke-linejoin="round"/>
<circle cx="13.8793" cy="13.8324" r="3.51993" stroke="#090909" stroke-width="2.00288" stroke-linecap="round" stroke-linejoin="round"/>
</g>
<defs>
<clipPath id="clip0_10699_5257">
<rect width="29" height="28" fill="white"/>
</clipPath>
</defs>
</svg>
