<svg version="1.2" xmlns="http://www.w3.org/2000/svg" viewBox="0 0 938 313" width="938" height="313">
	<title>final-londy-logo</title>
	<style>
		.s0 { fill: #040b23 } 
	</style>
	<path id="Path 0" fill-rule="evenodd" class="s0" d="m232.3 111.5c3.4 0.3 8.4 0.8 11.2 1.1 2.7 0.3 6.7 0.9 8.7 1.4 2.1 0.6 4.7 1.9 5.8 3 1.9 1.9 2 3.3 2 34.3 0 29.7 0.2 32.5 2 36.2 1 2.2 3 4.6 4.4 5.3 1.4 0.6 4.2 1.2 6.1 1.2 1.9 0 3.7 0.4 4 1 0.3 0.6-1.2 1-3.8 1-2.3 0-7.3-0.5-11.2-1.1-3.9-0.5-9.5-2.1-12.5-3.4-3-1.4-6.7-3.7-8.2-5.2-1.5-1.6-3.5-4.6-4.5-6.8-1.6-3.5-1.8-7.5-2-62.5l-2.9-2c-1.6-1.1-3.5-2.1-4.2-2-0.6 0-1.2-0.5-1.1-1 0-0.7 2.2-0.9 6.2-0.5zm112.3 13.5c0.2 0 1.3 0.5 2.4 1 1.9 1 2 2 2 42l22.5 0.5v7l-30.5 0.5-0.1-23.9c0-21 0.2-24.2 1.6-25.5 0.9-0.9 1.8-1.6 2.1-1.6zm199.1 0c0.2 0 1.2 0.5 2.3 1 1.9 1 2 2 2 42h11c6 0 11 0.3 11.1 0.7 0.1 0.5 0.2 2.1 0.4 6.8l-30.5 0.5-0.2-24.5c-0.1-23.1 0-24.5 1.8-25.4 1-0.6 2-1.1 2.1-1.1zm-63.7 1v18.2c0 17-0.1 18.6-2.2 22.7-1.3 2.5-3.6 5.4-5.1 6.5-1.8 1.3-4.9 2.2-8 2.4-4.2 0.3-5.9-0.1-8.7-2-1.9-1.3-4.5-4.2-5.7-6.3-1.7-3-2.3-5.6-2.3-10.8 0-3.7 0.6-8.2 1.3-9.9 0.8-1.8 2.7-4.3 4.3-5.6 1.6-1.3 4.5-2.7 6.4-3.2 1.9-0.5 4.6-0.5 6 0 1.4 0.4 3.3 1.1 4.2 1.4 1.6 0.5 1.8-0.1 1.6-5.7-0.1-3.5 0.2-6.7 0.7-7 0.5-0.4 2.3-0.7 7.5-0.7zm-22.5 23.1c-0.8 1.6-1.5 5.3-1.5 8.1 0 3.1 0.6 6.3 1.5 7.5 0.8 1.3 2.5 2.8 3.7 3.4 1.7 0.8 3 0.7 5.1-0.3 1.5-0.7 3.5-2.8 4.3-4.6 0.7-1.7 1.4-5.2 1.4-7.7 0-3.3-0.6-5.3-2.5-7.5-1.7-2.1-3.4-3-5.3-2.9-1.5 0-3.3 0.3-3.9 0.6-0.7 0.3-2 1.8-2.8 3.4zm-27-11.4c1.6 0.3 4.5 1.5 6.2 2.6 1.8 1.2 4 3.7 4.8 5.4 1.1 2.5 1.4 6.4 1 29.8h-7l-0.5-13.7c-0.4-12.2-0.7-13.9-2.5-15.2-1.1-0.9-2.9-1.6-4-1.6-1.1 0-2.8 0.7-3.8 1.7-1.5 1.5-1.8 3.9-2.2 28.8h-8l-0.3-13c-0.1-7.2 0.2-14.1 0.8-15.5 0.5-1.4 2.2-3.7 3.7-5.1 1.6-1.5 4.2-3.1 5.8-3.7 1.6-0.6 4.4-0.8 6-0.5zm196.3-0.6c0.1-0.1 2.4 0.3 5.2 0.9 3.8 0.8 5.6 1.8 7.6 4.2 2.5 3.2 2.6 3.7 2.3 13.8-0.4 9.3-0.7 10.9-2.9 13.9-1.4 1.9-4 4.1-5.8 4.8-1.7 0.7-5.6 1.3-8.5 1.3-3.2 0-6.3-0.7-8.2-1.8-1.6-1-3.6-3.1-4.3-4.8-0.8-1.7-1.1-4.4-0.8-6.7 0.4-2.4 1.6-4.5 3.6-6.2 1.6-1.4 4.7-2.7 6.7-3 2.1-0.3 5.6-0.9 7.8-1.3 2.7-0.5 4.1-1.3 4.2-2.5 0.2-0.9-0.3-2.4-1-3.3-1-1.4-2.4-1.6-14.7-0.4l-0.2-3.4c-0.2-3.4-0.1-3.5 4.2-4.4 2.5-0.6 4.6-1 4.7-1.1zm-3.5 23.4c-1.2 0.3-2.7 1.4-3.2 2.5-0.8 1.5-0.6 2.5 0.7 4 1 1.2 2.8 2.1 4 2 1.3 0 3.3-0.5 4.5-1.2 1.3-0.6 2.8-1.8 3.5-2.7 0.7-0.9 1.3-2.6 1.3-3.9 0-1.7-0.5-2.2-2.3-2.1-1.2 0.1-3.1 0.3-4.2 0.6-1.1 0.2-3 0.6-4.3 0.8zm38.8-23.5c0.8 0 3.4 0.9 5.7 2 2.4 1.1 5.2 3.4 6.3 5.2 1.8 3 2 4.7 1.5 31.3l-7.5 0.5v-13.5c0-12.2-0.2-13.7-2-15.5-1.1-1.1-3-2-4.3-2-1.2-0.1-3 0.7-3.9 1.7-1.4 1.5-1.8 4.2-2.3 28.8h-8v-14c0-13.1 0.2-14.2 2.3-17.4 1.3-1.8 4.3-4.2 6.5-5.2 2.3-1 4.9-1.9 5.7-1.9zm34.5 0.7c1.6 0.3 4.2 1.2 5.7 1.9 1.6 0.8 3.5 2.4 4.3 3.6 0.8 1.3 1.5 3.1 1.5 4 0 1.3-0.8 1.8-3.3 1.8-2 0.1-4-0.7-5.2-2-1.4-1.5-3-2-5.4-1.8-1.9 0.2-3.9 1.1-4.5 2.1-0.9 1.5-0.7 2.1 0.9 3.3 1.1 0.8 4.5 1.9 7.5 2.5 3.8 0.8 6.4 2.1 8.2 4 2.2 2.2 2.8 3.9 2.8 7.1 0 2.5-0.7 5.3-1.7 6.7-1 1.4-3.3 3.1-5.1 3.8-1.7 0.7-5.1 1.3-7.5 1.3-2.3 0-5.8-0.8-7.7-1.8-1.9-0.9-4.2-3.2-5.2-5-1-1.7-1.6-3.9-1.3-4.7 0.3-0.8 1.7-1.5 3.2-1.5 1.8 0 3.8 1 5.5 3 1.7 1.8 3.8 3 5.3 3 1.4 0 3.4-0.4 4.5-1 1.1-0.6 2-1.8 2-2.8 0.1-0.9-0.5-2.2-1.2-2.8-0.7-0.6-4-1.7-7.3-2.5-3.2-0.8-6.9-2.2-8.2-3.2-1.3-1-2.5-3.1-2.7-5-0.3-1.9 0.2-5 1-7 0.8-2.1 2.4-4.2 3.6-4.9 1.3-0.6 3.4-1.5 4.8-1.9 1.4-0.4 3.9-0.5 5.5-0.2zm-304.5 0.4q4.5-0.1 8.7 2.4c3.3 1.9 4.9 3.8 6.8 8 1.4 3 2.5 7 2.5 8.7 0 1.8-1.3 5.7-2.8 8.7-2.1 4.2-3.7 6-7.2 7.8-2.5 1.3-6.2 2.3-8.3 2.3-2 0-5.5-0.9-7.7-2-2.2-1.1-4.8-3.2-5.9-4.8-1-1.5-2.4-4.5-3.1-6.7-0.7-2.3-1-5.9-0.6-8.5 0.3-2.6 1.9-6.3 3.6-8.8 1.6-2.4 4.4-5 6.2-5.7 1.8-0.8 5.3-1.4 7.8-1.4zm-8.9 14.6c-0.6 2.1-0.7 5.3-0.3 7.2 0.4 2 2.1 4.6 3.9 6.2 1.8 1.6 3.9 2.9 4.5 2.9 0.7 0 2.8-1 4.7-2.2 1.9-1.3 4-3.8 4.7-5.8 1-2.7 1-4.4 0.1-7.4-0.7-2.1-2.4-4.9-4-6.2-1.5-1.3-3.5-2.4-4.5-2.4-0.9 0-3.2 0.9-5 2-2.2 1.4-3.5 3.2-4.1 5.7zm207.9-14.7c2.8 0 5.7 0.8 7.7 2 1.8 1.1 4.4 3.5 5.7 5.2 1.4 1.8 2.9 5.1 3.4 7.3 0.6 2.4 0.6 5.8 0.1 8.5-0.5 2.7-2.3 6.2-4.4 8.7-2.2 2.7-4.9 4.7-7.3 5.4-2 0.7-5.5 1-7.7 0.7-2.4-0.2-5.6-1.6-7.9-3.3-2.2-1.7-4.8-4.8-5.8-7-1-2.2-1.8-5.9-1.8-8.3 0-2.3 0.7-5.9 1.6-8 0.8-2 2.3-4.8 3.2-6.2 1-1.3 3.3-3 5.2-3.7 1.9-0.7 5.5-1.2 8-1.3zm-8.9 13.7c-0.6 1.3-1.1 3.8-1.1 5.5 0 1.8 0.8 4.6 1.8 6.3 1 1.7 3.3 3.6 5 4.2 2.7 1.1 3.7 1 6.4-0.5 1.8-1 3.9-2.9 4.5-4.3 0.7-1.3 1.3-4.3 1.3-6.7 0-3.5-0.6-4.8-3.5-7.7-1.9-1.9-4.5-3.5-5.8-3.5-1.2 0-3.4 1-4.9 2.3-1.4 1.2-3.1 3.2-3.7 4.4zm-94.2-12.7c3.5-0.1 3.7 0.1 6 6.2 1.3 3.5 3 8.3 3.9 10.8 0.8 2.5 1.9 4.9 2.3 5.5 0.4 0.6 2.2-3.5 3.9-9 1.8-5.5 3.6-10.8 4.1-11.8 0.6-1.2 2.1-1.7 4.9-1.7 2.2 0 4 0.4 4 1 0 0.6-0.6 2.5-1.4 4.2-0.8 1.8-2.7 6.7-4.1 10.8-1.4 4.1-3.8 10.7-5.2 14.5-1.4 3.8-3.4 8.9-4.4 11.2-1.1 2.4-2.9 5-4.2 5.8-1.2 0.8-4.1 1.5-6.5 1.5-2.3 0-4.4-0.4-4.7-1-0.3-0.6 1.5-2.9 3.8-5.3 2.4-2.3 4.6-4.9 4.9-5.7 0.3-0.8-1.1-5.8-3-11-1.9-5.2-3.9-11.1-4.4-13-0.6-1.9-1.9-5.4-2.9-7.8-1.1-2.3-1.6-4.4-1.2-4.7 0.3-0.3 2.2-0.5 4.2-0.5zm-205.4 12.1c0.6 0 2 0.1 5.5 0.9l-2.3 2.7c-1.3 1.6-2.7 4.1-3.1 5.8q-0.7 3 0.8 6.7c1 2.4 2.8 4.4 4.8 5.4 2.3 1.2 4.6 1.5 7.5 1 2.4-0.3 4.3-0.3 4.3 0.1 0 0.5-1.7 2.8-3.7 5.2-2.1 2.5-5.3 5-7.1 5.8-1.7 0.7-4.8 1.3-6.7 1.3-1.9 0-5-0.6-6.8-1.3-1.7-0.8-4.7-3-6.5-5-1.8-2.1-3.5-5.3-3.8-7.5-0.4-2-0.4-5.3 0-7.2 0.3-1.9 1.4-4.6 2.5-6 1-1.4 2.9-3.3 4.2-4.3 1.3-1 4-2.2 5.9-2.6 1.9-0.5 3.9-0.9 4.5-1zm13 2.4c1.6 0.3 4.1 1.7 5.5 3 1.7 1.8 2.5 3.6 2.5 6.1 0 2.8-0.7 4.2-3.5 6.6-2.9 2.6-4.1 3-7 2.5-1.9-0.4-4.5-1.8-5.8-3.2-1.2-1.4-2.2-3.8-2.2-5.5 0-1.7 0.4-3.9 1-5 0.6-1.1 2.2-2.7 3.7-3.5 1.6-0.9 4.1-1.3 5.8-1z"/>
</svg>