<svg width="183" height="34" viewBox="0 0 183 34" fill="none" xmlns="http://www.w3.org/2000/svg">
<path d="M56.1079 23.3822C58.689 23.3822 61.012 21.6041 61.6429 19.1664L66.1455 19.7686C65.4572 24.2712 61.2127 27.5119 55.9932 27.5119C49.6839 27.5119 45.0953 22.9233 45.0953 16.5853C45.0953 10.2473 49.6839 5.65873 55.9932 5.65873C61.1554 5.65873 65.3998 8.98546 66.1455 13.6027L61.6142 14.1189C61.0407 11.5952 58.7464 9.78846 56.1079 9.78846C52.4657 9.78846 49.9133 12.599 49.9133 16.5853C49.9133 20.5716 52.4944 23.3822 56.1079 23.3822ZM75.9845 11.5379C80.8312 11.5379 84.1579 14.7499 84.1579 19.4532C84.1579 24.1278 80.8312 27.3685 75.9845 27.3685C71.1665 27.3685 67.8398 24.1278 67.8398 19.4532C67.8398 14.7499 71.1665 11.5379 75.9845 11.5379ZM75.9845 23.5829C78.2501 23.5829 79.8275 21.8622 79.8275 19.4532C79.8275 17.0442 78.2501 15.3234 75.9845 15.3234C73.7476 15.3234 72.1702 17.0442 72.1702 19.4532C72.1702 21.8622 73.7476 23.5829 75.9845 23.5829ZM90.6498 26.7949H86.348V12.1114H90.4778V13.8608C91.3955 12.3695 93.0015 11.5379 94.7796 11.5379C96.9018 11.5379 98.6799 12.5416 99.5116 14.1476C100.458 12.5416 102.408 11.5379 104.444 11.5379C107.771 11.5379 110.094 14.0329 110.094 17.5604V26.7949H105.792V18.4207C105.792 16.6713 104.702 15.3808 103.068 15.3234C101.404 15.3234 100.286 16.614 100.286 18.4207V26.7949H95.9841V18.4207C95.9841 16.5566 94.9516 15.3234 93.3456 15.3234C91.711 15.3234 90.6498 16.5566 90.6498 18.4207V26.7949ZM120.655 23.4969C122.892 23.4969 124.498 21.7762 124.498 19.4532C124.498 17.1015 122.863 15.4095 120.655 15.4095C118.418 15.4095 116.812 17.1302 116.812 19.4532C116.812 21.7762 118.418 23.4969 120.655 23.4969ZM128.799 19.4532C128.799 24.0991 125.932 27.3685 121.831 27.3685C119.823 27.3685 118.16 26.5081 116.984 25.0168V33.391H112.682V12.1114H116.926V13.8895C118.102 12.4269 119.794 11.5379 121.831 11.5379C125.903 11.5379 128.799 14.8072 128.799 19.4532ZM138.491 23.5829C140.728 23.5829 142.334 21.8335 142.334 19.4532C142.334 17.0728 140.728 15.3234 138.491 15.3234C136.254 15.3234 134.648 17.0728 134.648 19.4532C134.648 21.8335 136.254 23.5829 138.491 23.5829ZM142.363 14.1476V12.1114H146.665V26.7949H142.363V24.7587C141.216 26.3934 139.466 27.3685 137.373 27.3685C133.243 27.3685 130.347 24.0991 130.347 19.4532C130.347 14.8072 133.243 11.5379 137.373 11.5379C139.466 11.5379 141.216 12.5129 142.363 14.1476ZM149.526 12.1114H153.713V14.0903C154.746 12.5129 156.467 11.5379 158.388 11.5379C161.686 11.5379 163.923 14.0903 163.923 17.6177V26.7949H159.621V18.3634C159.621 16.5853 158.589 15.3234 156.897 15.3234C155.205 15.3234 153.828 16.6713 153.828 18.5355V26.7949H149.526V12.1114ZM167.137 32.9035V29.7201C167.653 29.8922 168.37 30.0069 168.886 30.0069C170.722 30.0069 171.439 28.7164 172.098 26.9383L165.158 12.1114H169.861L173.848 21.5754L177.117 12.1114H181.591L175.913 27.3111C174.536 31.0967 172.959 33.4197 169.976 33.4197C169.058 33.4197 167.94 33.2189 167.137 32.9035Z" fill="#969696"/>
<path fill-rule="evenodd" clip-rule="evenodd" d="M12.0341 0.923828C10.7929 0.923828 9.78665 1.93003 9.78665 3.17124V10.5527H2.27086C1.02964 10.5527 0.0234375 11.5589 0.0234375 12.8001V30.1926C0.0234375 31.4339 1.02964 32.4401 2.27086 32.4401H19.4588C20.7001 32.4401 21.7063 31.4339 21.7063 30.1926V22.8112H29.2221C30.4633 22.8112 31.4695 21.805 31.4695 20.5638V3.17125C31.4695 1.93003 30.4633 0.923828 29.2221 0.923828H12.0341ZM21.7063 22.8112V12.8001C21.7063 11.5589 20.7001 10.5527 19.4588 10.5527H9.78665V20.5638C9.78665 21.805 10.7929 22.8112 12.0341 22.8112H21.7063Z" fill="#969696"/>
</svg>
