<svg width="231" height="34" viewBox="0 0 231 34" fill="none" xmlns="http://www.w3.org/2000/svg">
<path d="M56.3947 26.5959C49.6839 26.5959 45.0953 22.1507 45.0953 15.6693C45.0953 9.21659 49.6839 4.74271 56.3947 4.74271C63.0769 4.74271 67.6941 9.21659 67.6941 15.6693C67.6941 22.1507 63.0769 26.5959 56.3947 26.5959ZM56.3947 8.87244C52.5805 8.87244 49.9133 11.683 49.9133 15.6693C49.9133 19.6556 52.5805 22.4375 56.3947 22.4661C60.209 22.4661 62.8761 19.6556 62.8761 15.6693C62.8761 11.683 60.209 8.87244 56.3947 8.87244ZM70.0684 11.1954H74.1981V13.0595C75.0585 11.5969 76.5211 10.6505 78.1271 10.6505C78.7007 10.6505 79.3029 10.7939 79.8765 11.0233V14.8376C79.0735 14.4935 78.0984 14.3214 77.4675 14.3214C75.6034 14.3214 74.3702 15.87 74.3702 18.0783V25.8789H70.0684V11.1954ZM88.9881 22.5522C91.225 22.5522 92.831 20.8601 92.831 18.5372C92.831 16.1568 91.225 14.4074 88.9881 14.4074C86.7511 14.4074 85.1451 16.1568 85.1451 18.5372C85.1451 20.8601 86.7511 22.5522 88.9881 22.5522ZM88.9307 29.6358C91.1103 29.6358 92.6589 28.1445 92.6589 25.5921V23.8427C91.5118 25.248 89.8484 26.0797 87.8122 26.0797C83.7685 26.0797 80.8433 22.9824 80.8433 18.5372C80.8433 13.9199 83.7685 10.6505 87.8122 10.6505C89.8771 10.6505 91.5405 11.5109 92.6589 12.9448V11.1954H96.9607V25.7068C96.9607 30.2667 93.7487 33.0486 89.1028 33.0486C85.0878 33.0486 81.8471 30.5822 81.4169 27.1981L85.2598 26.7679C85.6326 28.4313 87.1813 29.6358 88.9307 29.6358ZM107.312 22.6669C109.549 22.6669 111.155 20.9175 111.155 18.5372C111.155 16.1568 109.549 14.4074 107.312 14.4074C105.075 14.4074 103.469 16.1568 103.469 18.5372C103.469 20.9175 105.075 22.6669 107.312 22.6669ZM111.184 13.2316V11.1954H115.486V25.8789H111.184V23.8427C110.037 25.4774 108.287 26.4525 106.194 26.4525C102.064 26.4525 99.1674 23.1831 99.1674 18.5372C99.1674 13.8912 102.064 10.6218 106.194 10.6218C108.287 10.6218 110.037 11.5969 111.184 13.2316ZM118.347 11.1954H122.534V13.1742C123.567 11.5969 125.287 10.6218 127.209 10.6218C130.507 10.6218 132.744 13.1742 132.744 16.7017V25.8789H128.442V17.4474C128.442 15.6693 127.41 14.4074 125.718 14.4074C124.026 14.4074 122.649 15.7553 122.649 17.6194V25.8789H118.347V11.1954ZM135.671 11.1954H139.973V25.8789H135.671V11.1954ZM137.822 9.24527C136.359 9.24527 135.327 8.24152 135.327 6.80758C135.327 5.40232 136.359 4.39857 137.822 4.39857C139.285 4.39857 140.317 5.40232 140.317 6.80758C140.317 8.24152 139.285 9.24527 137.822 9.24527ZM142.632 23.0684L150.117 14.7229H142.919V11.1954H156.025V14.0059L148.798 22.3514H156.311V25.8789H142.632V23.0684ZM166.129 22.6669C168.366 22.6669 169.972 20.9175 169.972 18.5372C169.972 16.1568 168.366 14.4074 166.129 14.4074C163.892 14.4074 162.286 16.1568 162.286 18.5372C162.286 20.9175 163.892 22.6669 166.129 22.6669ZM170.001 13.2316V11.1954H174.303V25.8789H170.001V23.8427C168.854 25.4774 167.104 26.4525 165.011 26.4525C160.881 26.4525 157.984 23.1831 157.984 18.5372C157.984 13.8912 160.881 10.6218 165.011 10.6218C167.104 10.6218 168.854 11.5969 170.001 13.2316ZM178.283 21.1182V14.4648H176.218V11.1954H178.483L178.971 7.49587H182.585V11.1954H185.911V14.4648H182.585V20.6881C182.585 21.9212 183.33 22.7529 184.535 22.7529C184.936 22.7529 185.567 22.6669 186.055 22.5235V25.9936C185.166 26.2804 184.018 26.4525 183.101 26.4525C180.176 26.4525 178.283 24.2442 178.283 21.1182ZM188.607 11.1954H192.909V25.8789H188.607V11.1954ZM190.758 9.24527C189.295 9.24527 188.263 8.24152 188.263 6.80758C188.263 5.40232 189.295 4.39857 190.758 4.39857C192.22 4.39857 193.253 5.40232 193.253 6.80758C193.253 8.24152 192.22 9.24527 190.758 9.24527ZM203.569 10.6218C208.416 10.6218 211.742 13.8339 211.742 18.5372C211.742 23.2118 208.416 26.4525 203.569 26.4525C198.751 26.4525 195.424 23.2118 195.424 18.5372C195.424 13.8339 198.751 10.6218 203.569 10.6218ZM203.569 22.6669C205.834 22.6669 207.412 20.9462 207.412 18.5372C207.412 16.1282 205.834 14.4074 203.569 14.4074C201.332 14.4074 199.755 16.1282 199.755 18.5372C199.755 20.9462 201.332 22.6669 203.569 22.6669ZM213.932 11.1954H218.119V13.1742C219.152 11.5969 220.873 10.6218 222.794 10.6218C226.092 10.6218 228.329 13.1742 228.329 16.7017V25.8789H224.027V17.4474C224.027 15.6693 222.995 14.4074 221.303 14.4074C219.611 14.4074 218.234 15.7553 218.234 17.6194V25.8789H213.932V11.1954Z" fill="#969696"/>
<path d="M14.6764 3.0205C14.6764 1.92295 13.7827 1.01938 12.6952 1.16755C11.449 1.33733 10.227 1.66698 9.05999 2.15038C7.27937 2.88794 5.66145 3.96899 4.29862 5.33183C2.93579 6.69466 1.85473 8.31257 1.11717 10.0932C0.379616 11.8738 -7.70574e-07 13.7823 -8.16541e-07 15.7096C-8.62507e-07 17.637 0.379616 19.5454 1.11717 21.326C1.85473 23.1067 2.93579 24.7246 4.29862 26.0874C5.66145 27.4502 7.27937 28.5313 9.05999 29.2689C10.8406 30.0064 12.7491 30.386 14.6764 30.386L14.6764 23.3414C13.6742 23.3414 12.6818 23.144 11.7559 22.7604C10.83 22.3769 9.98863 21.8147 9.27996 21.1061C8.57129 20.3974 8.00914 19.5561 7.62561 18.6302C7.24208 17.7042 7.04468 16.7118 7.04468 15.7096C7.04468 14.7074 7.24208 13.715 7.62561 12.7891C8.00914 11.8632 8.57129 11.0218 9.27996 10.3132C9.98863 9.60449 10.83 9.04234 11.7559 8.65881C12.0676 8.52969 12.3869 8.42167 12.7115 8.33517C13.772 8.05259 14.6764 7.18814 14.6764 6.09059L14.6764 3.0205Z" fill="#969696"/>
<path d="M27.169 15.709C28.2665 15.709 29.1701 16.6027 29.0219 17.6902C28.8521 18.9364 28.5225 20.1584 28.0391 21.3254C27.3015 23.106 26.2205 24.7239 24.8576 26.0868C23.4948 27.4496 21.8769 28.5307 20.0963 29.2682C18.3156 30.0058 16.4072 30.3854 14.4798 30.3854L14.4798 23.3407C15.4821 23.3407 16.4745 23.1433 17.4004 22.7598C18.3263 22.3763 19.1676 21.8141 19.8763 21.1054C20.585 20.3968 21.1471 19.5554 21.5306 18.6295C21.6598 18.3178 21.7678 17.9985 21.8543 17.6739C22.1369 16.6134 23.0013 15.709 24.0989 15.709L27.169 15.709Z" fill="#969696"/>
<path d="M29.6455 1.03906C30.7431 1.03906 31.6466 1.9328 31.4985 3.0203C31.3287 4.26649 30.999 5.48844 30.5156 6.65548C29.7781 8.43611 28.697 10.054 27.3342 11.4169C25.9714 12.7797 24.3534 13.8607 22.5728 14.5983C21.4058 15.0817 20.1838 15.4114 18.9376 15.5811C17.8501 15.7293 16.9564 14.8257 16.9564 13.7282L16.9564 10.6581C16.9564 9.56054 17.8608 8.69609 18.9213 8.41351C19.246 8.32701 19.5652 8.21899 19.8769 8.08987C20.8029 7.70634 21.6442 7.14419 22.3529 6.43552C23.0615 5.72684 23.6237 4.88553 24.0072 3.9596C24.1363 3.64788 24.2443 3.32862 24.3308 3.00398C24.6134 1.94343 25.4779 1.03906 26.5754 1.03906L29.6455 1.03906Z" fill="#969696"/>
</svg>
