<svg width="191" height="36" viewBox="0 0 191 36" fill="none" xmlns="http://www.w3.org/2000/svg">
<path d="M51.7424 19.2022V24.0776H61.7225V27.9492H47.0964V7.53H61.4358V11.4016H51.7424V15.7608H60.2886V19.2022H51.7424ZM64.0655 13.2657H68.2525V15.2446C69.285 13.6672 71.0057 12.6922 72.9272 12.6922C76.2252 12.6922 78.4622 15.2446 78.4622 18.772V27.9492H74.1604V19.5177C74.1604 17.7396 73.1279 16.4777 71.4359 16.4777C69.7438 16.4777 68.3673 17.8256 68.3673 19.6898V27.9492H64.0655V13.2657ZM82.1637 23.1886V16.5351H80.0989V13.2657H82.3645L82.852 9.56618H86.4655V13.2657H89.7923V16.5351H86.4655V22.7584C86.4655 23.9916 87.2112 24.8232 88.4157 24.8232C88.8172 24.8232 89.4481 24.7372 89.9356 24.5938V28.0639C89.0466 28.3507 87.8995 28.5228 86.9817 28.5228C84.0565 28.5228 82.1637 26.3145 82.1637 23.1886ZM95.9006 19.2309H103.128C102.87 17.3668 101.436 15.9902 99.4854 15.9902C97.5926 15.9902 96.2734 17.2807 95.9006 19.2309ZM91.4841 20.4928C91.4841 15.9042 94.8395 12.6922 99.5715 12.6922C104.275 12.6922 107.487 15.9042 107.487 20.5501C107.487 20.9229 107.487 21.5252 107.429 21.8407L95.9293 21.812C96.3021 23.8768 97.7073 25.2247 99.6575 25.2247C101.264 25.2247 102.611 24.307 103.07 23.0165L106.942 23.5614C106.225 26.4292 103.128 28.5228 99.5428 28.5228C94.8108 28.5228 91.4841 25.2247 91.4841 20.4928ZM109.684 13.2657H113.813V15.1298C114.674 13.6672 116.136 12.7208 117.742 12.7208C118.316 12.7208 118.918 12.8642 119.492 13.0937V16.9079C118.689 16.5638 117.714 16.3917 117.083 16.3917C115.219 16.3917 113.985 17.9404 113.985 20.1486V27.9492H109.684V13.2657ZM129.091 24.6512C131.328 24.6512 132.934 22.9304 132.934 20.6075C132.934 18.2558 131.299 16.5638 129.091 16.5638C126.854 16.5638 125.248 18.2845 125.248 20.6075C125.248 22.9304 126.854 24.6512 129.091 24.6512ZM137.236 20.6075C137.236 25.2534 134.368 28.5228 130.267 28.5228C128.259 28.5228 126.596 27.6624 125.42 26.1711V34.5453H121.118V13.2657H125.363V15.0438C126.538 13.5812 128.23 12.6922 130.267 12.6922C134.339 12.6922 137.236 15.9615 137.236 20.6075ZM139.442 13.2657H143.572V15.1298C144.432 13.6672 145.895 12.7208 147.501 12.7208C148.075 12.7208 148.677 12.8642 149.25 13.0937V16.9079C148.447 16.5638 147.472 16.3917 146.841 16.3917C144.977 16.3917 143.744 17.9404 143.744 20.1486V27.9492H139.442V13.2657ZM151.221 13.2657H155.523V27.9492H151.221V13.2657ZM153.372 11.3156C151.909 11.3156 150.877 10.3118 150.877 8.87789C150.877 7.47264 151.909 6.46888 153.372 6.46888C154.834 6.46888 155.867 7.47264 155.867 8.87789C155.867 10.3118 154.834 11.3156 153.372 11.3156ZM171.947 23.3033C171.947 26.3719 169.137 28.5801 165.036 28.5801C161.078 28.5801 158.21 26.2572 158.239 23.0452H161.881C161.881 24.5078 163.229 25.5402 165.093 25.5402C166.67 25.5402 167.818 24.7946 167.818 23.8195C167.818 22.5863 166.154 22.2422 164.376 22.0701C161.107 21.6686 158.382 21.1524 158.382 17.5675C158.382 14.6997 161.107 12.6348 164.692 12.6348C168.621 12.6348 171.46 14.757 171.46 17.7109H167.674C167.674 16.5064 166.384 15.6747 164.663 15.6747C163.344 15.6747 162.283 16.363 162.254 17.3381C162.254 18.3132 163.544 18.6 165.208 18.8581C168.19 19.2596 171.947 19.8618 171.947 23.3033ZM177.895 19.2309H185.122C184.864 17.3668 183.43 15.9902 181.48 15.9902C179.587 15.9902 178.268 17.2807 177.895 19.2309ZM173.478 20.4928C173.478 15.9042 176.834 12.6922 181.566 12.6922C186.269 12.6922 189.481 15.9042 189.481 20.5501C189.481 20.9229 189.481 21.5252 189.424 21.8407L177.923 21.812C178.296 23.8768 179.701 25.2247 181.652 25.2247C183.258 25.2247 184.606 24.307 185.064 23.0165L188.936 23.5614C188.219 26.4292 185.122 28.5228 181.537 28.5228C176.805 28.5228 173.478 25.2247 173.478 20.4928Z" fill="#969696"/>
<g clip-path="url(#clip0_10835_8429)">
<path fill-rule="evenodd" clip-rule="evenodd" d="M0.651687 23.873C0.651686 24.8578 1.64914 25.529 2.56144 25.1582L12.8434 20.9786C13.3662 20.766 13.7082 20.2578 13.7082 19.6934L13.7082 15.0484C13.7082 14.484 14.0502 13.9758 14.5731 13.7632L25.0257 9.51421C25.5486 9.30165 25.8906 8.79347 25.8906 8.22902L25.8906 2.80094C25.8906 2.03475 25.2695 1.41362 24.5033 1.41362L14.2214 1.41362C13.4552 1.41362 12.8341 2.03474 12.8341 2.80094L12.8341 11.4906C12.8341 12.2568 12.213 12.878 11.4468 12.878L2.03901 12.878C1.27281 12.878 0.651687 13.4991 0.651687 14.2653L0.651687 23.873Z" fill="#969696"/>
<path fill-rule="evenodd" clip-rule="evenodd" d="M35.1218 9.96098C35.1218 8.97618 34.1243 8.30494 33.212 8.67579L22.9301 12.8554C22.4072 13.068 22.0652 13.5762 22.0652 14.1406V18.7856C22.0652 19.35 21.7232 19.8582 21.2003 20.0707L10.7477 24.3198C10.2248 24.5323 9.88281 25.0405 9.88281 25.605V31.033C9.88281 31.7992 10.5039 32.4204 11.2701 32.4204H21.552C22.3182 32.4204 22.9394 31.7992 22.9394 31.033V22.3433C22.9394 21.5771 23.5605 20.956 24.3267 20.956H33.7344C34.5006 20.956 35.1218 20.3349 35.1218 19.5687V9.96098Z" fill="#969696"/>
</g>
<defs>
<clipPath id="clip0_10835_8429">
<rect width="35.7713" height="35.7713" fill="white"/>
</clipPath>
</defs>
</svg>
