<svg width="190" height="28" viewBox="0 0 190 28" fill="none" xmlns="http://www.w3.org/2000/svg">
<path d="M46.3675 22.4235C40.8499 22.4235 37.0771 18.7686 37.0771 13.4396C37.0771 8.13423 40.8499 4.45582 46.3675 4.45582C51.8615 4.45582 55.6579 8.13423 55.6579 13.4396C55.6579 18.7686 51.8615 22.4235 46.3675 22.4235ZM46.3675 7.85128C43.2314 7.85128 41.0385 10.1621 41.0385 13.4396C41.0385 16.7172 43.2314 19.0044 46.3675 19.028C49.5036 19.028 51.6965 16.7172 51.6965 13.4396C51.6965 10.1621 49.5036 7.85128 46.3675 7.85128ZM57.61 9.76123H61.0055V11.2939C61.7128 10.0913 62.9154 9.31321 64.2359 9.31321C64.7075 9.31321 65.2026 9.43111 65.6742 9.61975V12.7558C65.014 12.4729 64.2123 12.3314 63.6935 12.3314C62.1609 12.3314 61.1469 13.6047 61.1469 15.4203V21.834H57.61V9.76123ZM73.1657 19.0988C75.0049 19.0988 76.3254 17.7076 76.3254 15.7976C76.3254 13.8405 75.0049 12.4021 73.1657 12.4021C71.3265 12.4021 70.006 13.8405 70.006 15.7976C70.006 17.7076 71.3265 19.0988 73.1657 19.0988ZM73.1186 24.9229C74.9106 24.9229 76.1839 23.6968 76.1839 21.5982V20.1598C75.2407 21.3152 73.8731 21.999 72.199 21.999C68.8742 21.999 66.4691 19.4524 66.4691 15.7976C66.4691 12.0013 68.8742 9.31321 72.199 9.31321C73.8967 9.31321 75.2643 10.0206 76.1839 11.1996V9.76123H79.7208V21.6925C79.7208 25.4417 77.0799 27.7289 73.26 27.7289C69.9589 27.7289 67.2944 25.701 66.9407 22.9186L70.1004 22.565C70.4069 23.9326 71.6802 24.9229 73.1186 24.9229ZM88.2318 19.1931C90.071 19.1931 91.3915 17.7547 91.3915 15.7976C91.3915 13.8405 90.071 12.4021 88.2318 12.4021C86.3926 12.4021 85.0721 13.8405 85.0721 15.7976C85.0721 17.7547 86.3926 19.1931 88.2318 19.1931ZM91.415 11.4354V9.76123H94.952V21.834H91.415V20.1598C90.4719 21.5039 89.0335 22.3056 87.3122 22.3056C83.9167 22.3056 81.5352 19.6175 81.5352 15.7976C81.5352 11.9777 83.9167 9.28964 87.3122 9.28964C89.0335 9.28964 90.4719 10.0913 91.415 11.4354ZM97.3048 9.76123H100.747V11.3882C101.596 10.0913 103.011 9.28964 104.591 9.28964C107.303 9.28964 109.142 11.3882 109.142 14.2885V21.834H105.605V14.9016C105.605 13.4396 104.756 12.4021 103.365 12.4021C101.974 12.4021 100.842 13.5104 100.842 15.0431V21.834H97.3048V9.76123ZM111.549 9.76123H115.085V21.834H111.549V9.76123ZM113.317 8.15781C112.114 8.15781 111.266 7.33253 111.266 6.15355C111.266 4.99815 112.114 4.17286 113.317 4.17286C114.52 4.17286 115.368 4.99815 115.368 6.15355C115.368 7.33253 114.52 8.15781 113.317 8.15781ZM117.272 19.5232L123.426 12.6615H117.507V9.76123H128.283V12.072L122.341 18.9337H128.519V21.834H117.272V19.5232ZM136.591 19.1931C138.43 19.1931 139.751 17.7547 139.751 15.7976C139.751 13.8405 138.43 12.4021 136.591 12.4021C134.752 12.4021 133.431 13.8405 133.431 15.7976C133.431 17.7547 134.752 19.1931 136.591 19.1931ZM139.774 11.4354V9.76123H143.311V21.834H139.774V20.1598C138.831 21.5039 137.393 22.3056 135.672 22.3056C132.276 22.3056 129.895 19.6175 129.895 15.7976C129.895 11.9777 132.276 9.28964 135.672 9.28964C137.393 9.28964 138.831 10.0913 139.774 11.4354ZM146.584 17.9198V12.4493H144.886V9.76123H146.749L147.15 6.71946H150.121V9.76123H152.856V12.4493H150.121V17.5661C150.121 18.58 150.734 19.2638 151.724 19.2638C152.054 19.2638 152.573 19.1931 152.974 19.0752V21.9283C152.243 22.1641 151.3 22.3056 150.545 22.3056C148.14 22.3056 146.584 20.4899 146.584 17.9198ZM155.072 9.76123H158.609V21.834H155.072V9.76123ZM156.841 8.15781C155.638 8.15781 154.789 7.33253 154.789 6.15355C154.789 4.99815 155.638 4.17286 156.841 4.17286C158.043 4.17286 158.892 4.99815 158.892 6.15355C158.892 7.33253 158.043 8.15781 156.841 8.15781ZM167.374 9.28964C171.359 9.28964 174.094 11.9306 174.094 15.7976C174.094 19.6411 171.359 22.3056 167.374 22.3056C163.413 22.3056 160.677 19.6411 160.677 15.7976C160.677 11.9306 163.413 9.28964 167.374 9.28964ZM167.374 19.1931C169.237 19.1931 170.534 17.7783 170.534 15.7976C170.534 13.8169 169.237 12.4021 167.374 12.4021C165.535 12.4021 164.238 13.8169 164.238 15.7976C164.238 17.7783 165.535 19.1931 167.374 19.1931ZM175.895 9.76123H179.337V11.3882C180.186 10.0913 181.601 9.28964 183.181 9.28964C185.893 9.28964 187.732 11.3882 187.732 14.2885V21.834H184.195V14.9016C184.195 13.4396 183.346 12.4021 181.955 12.4021C180.564 12.4021 179.432 13.5104 179.432 15.0431V21.834H175.895V9.76123Z" fill="white"/>
<path d="M12.0669 2.48551C12.0669 1.58311 11.3321 0.840199 10.438 0.96202C9.41335 1.10162 8.40866 1.37265 7.44912 1.7701C5.98509 2.37652 4.65484 3.26537 3.53433 4.38589C2.41381 5.50641 1.52496 6.83666 0.918541 8.30068C0.31212 9.76471 -6.33566e-07 11.3338 -6.7136e-07 12.9185C-7.09153e-07 14.5032 0.31212 16.0723 0.91854 17.5363C1.52496 19.0004 2.41381 20.3306 3.53432 21.4511C4.65484 22.5716 5.98509 23.4605 7.44912 24.0669C8.91315 24.6733 10.4823 24.9854 12.0669 24.9854L12.0669 19.1933C11.2429 19.1933 10.427 19.031 9.66568 18.7157C8.90438 18.4003 8.21265 17.9381 7.62998 17.3555C7.04731 16.7728 6.58511 16.0811 6.26977 15.3198C5.95443 14.5585 5.79213 13.7425 5.79213 12.9185C5.79213 12.0945 5.95443 11.2785 6.26977 10.5172C6.58511 9.75594 7.04731 9.06421 7.62998 8.48154C8.21265 7.89887 8.90438 7.43667 9.66568 7.12134C9.92198 7.01517 10.1845 6.92636 10.4514 6.85524C11.3234 6.6229 12.0669 5.91215 12.0669 5.00974L12.0669 2.48551Z" fill="white"/>
<path d="M22.3426 12.918C23.245 12.918 23.9879 13.6528 23.8661 14.5469C23.7265 15.5716 23.4555 16.5762 23.058 17.5358C22.4516 18.9998 21.5628 20.3301 20.4422 21.4506C19.3217 22.5711 17.9915 23.4599 16.5274 24.0664C15.0634 24.6728 13.4943 24.9849 11.9096 24.9849L11.9096 19.1928C12.7336 19.1928 13.5496 19.0305 14.3109 18.7151C15.0722 18.3998 15.7639 17.9376 16.3466 17.3549C16.9293 16.7723 17.3915 16.0805 17.7068 15.3192C17.813 15.0629 17.9018 14.8004 17.9729 14.5335C18.2052 13.6615 18.916 12.918 19.8184 12.918L22.3426 12.918Z" fill="white"/>
<path d="M24.366 0.857422C25.2685 0.857422 26.0114 1.59225 25.8895 2.4864C25.7499 3.51101 25.4789 4.5157 25.0815 5.47524C24.475 6.93927 23.5862 8.26952 22.4657 9.39004C21.3452 10.5106 20.0149 11.3994 18.5509 12.0058C17.5913 12.4033 16.5866 12.6743 15.562 12.8139C14.6679 12.9357 13.9331 12.1928 13.9331 11.2904L13.9331 8.76618C13.9331 7.86378 14.6766 7.15303 15.5486 6.92069C15.8155 6.84957 16.078 6.76076 16.3343 6.65459C17.0956 6.33925 17.7873 5.87705 18.37 5.29438C18.9527 4.71171 19.4149 4.01998 19.7302 3.25869C19.8364 3.00239 19.9252 2.73989 19.9963 2.47298C20.2287 1.601 20.9394 0.857423 21.8418 0.857423L24.366 0.857422Z" fill="white"/>
</svg>
