<svg width="152" height="33" viewBox="0 0 152 33" fill="none" xmlns="http://www.w3.org/2000/svg">
<path d="M62.7614 19.4283C62.7614 23.6153 59.2913 26.5119 54.1004 26.5119C48.9096 26.5119 45.1814 23.3859 45.1814 19.0841H49.5118C49.5118 21.2924 51.4907 22.8697 54.2438 22.8697C56.5955 22.8697 58.0581 21.6939 58.0581 20.0592C58.0581 18.1377 55.8498 17.8509 53.3261 17.5355C49.2824 17.0192 45.3821 16.1589 45.3821 11.3982C45.3821 7.41188 48.7949 4.65873 53.7276 4.65873C58.689 4.65873 62.2739 7.64131 62.2739 11.7424H58.0868C58.1155 9.73486 56.3087 8.30092 53.8423 8.30092C51.5767 8.30092 50.0854 9.36204 50.0854 10.8533C50.0854 12.7748 52.1216 13.0616 54.7027 13.4057C58.6603 13.8646 62.7614 14.7249 62.7614 19.4283ZM65.8096 21.0343V14.3808H63.7448V11.1114H66.0104L66.4979 7.41188H70.1114V11.1114H73.4382V14.3808H70.1114V20.6041C70.1114 21.8373 70.8571 22.6689 72.0616 22.6689C72.4631 22.6689 73.094 22.5829 73.5816 22.4395V25.9096C72.6925 26.1964 71.5454 26.3685 70.6276 26.3685C67.7024 26.3685 65.8096 24.1602 65.8096 21.0343ZM83.2747 22.5829C85.5117 22.5829 87.1177 20.8335 87.1177 18.4532C87.1177 16.0728 85.5117 14.3234 83.2747 14.3234C81.0378 14.3234 79.4318 16.0728 79.4318 18.4532C79.4318 20.8335 81.0378 22.5829 83.2747 22.5829ZM87.1463 13.1476V11.1114H91.4481V25.7949H87.1463V23.7587C85.9992 25.3934 84.2498 26.3685 82.1563 26.3685C78.0265 26.3685 75.13 23.0991 75.13 18.4532C75.13 13.8072 78.0265 10.5379 82.1563 10.5379C84.2498 10.5379 85.9992 11.5129 87.1463 13.1476ZM94.3097 11.1114H98.4395V12.9755C99.2998 11.5129 100.762 10.5665 102.368 10.5665C102.942 10.5665 103.544 10.7099 104.118 10.9394V14.7536C103.315 14.4095 102.34 14.2374 101.709 14.2374C99.8447 14.2374 98.6115 15.7861 98.6115 17.9943V25.7949H94.3097V11.1114ZM106.863 21.0343V14.3808H104.798V11.1114H107.063L107.551 7.41188H111.165V11.1114H114.491V14.3808H111.165V20.6041C111.165 21.8373 111.91 22.6689 113.115 22.6689C113.516 22.6689 114.147 22.5829 114.635 22.4395V25.9096C113.746 26.1964 112.598 26.3685 111.681 26.3685C108.756 26.3685 106.863 24.1602 106.863 21.0343ZM130.953 25.7949H126.766V23.7874C125.733 25.3934 124.012 26.3685 122.091 26.3685C118.793 26.3685 116.556 23.8161 116.556 20.2886V11.1114H120.858V19.543C120.858 21.321 121.89 22.5829 123.582 22.5829C125.274 22.5829 126.651 21.235 126.651 19.3709V11.1114H130.953V25.7949ZM141.795 22.4969C144.032 22.4969 145.638 20.7762 145.638 18.4532C145.638 16.1015 144.003 14.4095 141.795 14.4095C139.558 14.4095 137.952 16.1302 137.952 18.4532C137.952 20.7762 139.558 22.4969 141.795 22.4969ZM149.94 18.4532C149.94 23.0991 147.072 26.3685 142.971 26.3685C140.963 26.3685 139.3 25.5081 138.124 24.0168V32.391H133.822V11.1114H138.067V12.8895C139.243 11.4269 140.935 10.5379 142.971 10.5379C147.043 10.5379 149.94 13.8072 149.94 18.4532Z" fill="#969696"/>
<path d="M1.13165 24.7694L0.92562 24.5576C0.119933 23.7292 0.130364 22.4069 0.949018 21.5913L9.82177 12.7519C10.6441 11.9327 11.9736 11.9314 12.7975 12.7489L17.0483 16.9668L23.8564 10.0697H19.1585C17.9931 10.0697 17.0483 9.12492 17.0483 7.95946V7.81924C17.0483 6.65378 17.9931 5.70898 19.1585 5.70898H29.3551C30.5206 5.70898 31.4654 6.65377 31.4654 7.81923V18.0158C31.4654 19.1813 30.5206 20.1261 29.3551 20.1261H29.0369C27.8715 20.1261 26.9267 19.1813 26.9267 18.0158V13.229L18.8038 21.3152C17.8281 22.2866 16.255 22.3004 15.2624 21.3462L11.9078 18.1217C11.5752 17.802 11.0475 17.8085 10.723 18.1364L4.14418 24.7827C3.31325 25.6221 1.95517 25.6162 1.13165 24.7694Z" fill="#969696"/>
</svg>
