<svg width="153" height="29" viewBox="0 0 153 29" fill="none" xmlns="http://www.w3.org/2000/svg">
<path d="M46.7246 19.9838C48.8743 19.9838 50.809 18.503 51.3345 16.4727L55.0844 16.9743C54.5112 20.7243 50.9762 23.4233 46.6291 23.4233C41.3744 23.4233 37.5527 19.6017 37.5527 14.3231C37.5527 9.04445 41.3744 5.22283 46.6291 5.22283C50.9284 5.22283 54.4634 7.9935 55.0844 11.839L51.3106 12.2689C50.8329 10.1671 48.9221 8.66229 46.7246 8.66229C43.6912 8.66229 41.5654 11.003 41.5654 14.3231C41.5654 17.6431 43.7151 19.9838 46.7246 19.9838ZM63.2789 10.1193C67.3155 10.1193 70.0861 12.7944 70.0861 16.7116C70.0861 20.6049 67.3155 23.3039 63.2789 23.3039C59.2662 23.3039 56.4955 20.6049 56.4955 16.7116C56.4955 12.7944 59.2662 10.1193 63.2789 10.1193ZM63.2789 20.151C65.1658 20.151 66.4795 18.7179 66.4795 16.7116C66.4795 14.7052 65.1658 13.2721 63.2789 13.2721C61.4158 13.2721 60.1022 14.7052 60.1022 16.7116C60.1022 18.7179 61.4158 20.151 63.2789 20.151ZM75.493 22.8262H71.9102V10.597H75.3497V12.054C76.114 10.812 77.4515 10.1193 78.9324 10.1193C80.6999 10.1193 82.1808 10.9553 82.8735 12.2928C83.6617 10.9553 85.2859 10.1193 86.9817 10.1193C89.7524 10.1193 91.6871 12.1973 91.6871 15.1352V22.8262H88.1043V15.8517C88.1043 14.3947 87.1967 13.3199 85.8352 13.2721C84.4499 13.2721 83.5184 14.347 83.5184 15.8517V22.8262H79.9356V15.8517C79.9356 14.2992 79.0757 13.2721 77.7382 13.2721C76.3767 13.2721 75.493 14.2992 75.493 15.8517V22.8262ZM100.483 20.0794C102.346 20.0794 103.683 18.6463 103.683 16.7116C103.683 14.753 102.322 13.3438 100.483 13.3438C98.6195 13.3438 97.282 14.7769 97.282 16.7116C97.282 18.6463 98.6195 20.0794 100.483 20.0794ZM107.266 16.7116C107.266 20.581 104.877 23.3039 101.462 23.3039C99.7899 23.3039 98.4046 22.5873 97.4253 21.3453V28.3198H93.8425V10.597H97.3775V12.0779C98.3568 10.8597 99.766 10.1193 101.462 10.1193C104.854 10.1193 107.266 12.8422 107.266 16.7116ZM115.338 20.151C117.201 20.151 118.538 18.694 118.538 16.7116C118.538 14.7291 117.201 13.2721 115.338 13.2721C113.475 13.2721 112.137 14.7291 112.137 16.7116C112.137 18.694 113.475 20.151 115.338 20.151ZM118.562 12.2928V10.597H122.145V22.8262H118.562V21.1303C117.607 22.4918 116.15 23.3039 114.406 23.3039C110.967 23.3039 108.554 20.581 108.554 16.7116C108.554 12.8422 110.967 10.1193 114.406 10.1193C116.15 10.1193 117.607 10.9314 118.562 12.2928ZM124.528 10.597H128.016V12.2451C128.875 10.9314 130.309 10.1193 131.909 10.1193C134.656 10.1193 136.519 12.2451 136.519 15.1829V22.8262H132.936V15.8039C132.936 14.3231 132.076 13.2721 130.667 13.2721C129.258 13.2721 128.111 14.3947 128.111 15.9473V22.8262H124.528V10.597ZM139.196 27.9137V25.2625C139.625 25.4058 140.223 25.5013 140.653 25.5013C142.181 25.5013 142.778 24.4265 143.328 22.9456L137.547 10.597H141.465L144.785 18.4791L147.508 10.597H151.234L146.504 23.2561C145.358 26.4089 144.044 28.3436 141.56 28.3436C140.796 28.3436 139.864 28.1764 139.196 27.9137Z" fill="white"/>
<path fill-rule="evenodd" clip-rule="evenodd" d="M10.0265 0.9375C8.99278 0.9375 8.15476 1.77552 8.15476 2.80927V8.95691H1.89521C0.861457 8.95691 0.0234375 9.79493 0.0234375 10.8287V25.3141C0.0234375 26.3479 0.861458 27.1859 1.89521 27.1859H16.2103C17.244 27.1859 18.082 26.3479 18.082 25.3141V19.1665H24.3416C25.3753 19.1665 26.2134 18.3285 26.2134 17.2947V2.80927C26.2134 1.77552 25.3753 0.9375 24.3416 0.9375H10.0265ZM18.082 19.1665V10.8287C18.082 9.79493 17.244 8.95691 16.2103 8.95691H8.15476V17.2947C8.15476 18.3285 8.99278 19.1665 10.0265 19.1665H18.082Z" fill="white"/>
</svg>
