<svg width="111" height="23" viewBox="0 0 111 23" fill="none" xmlns="http://www.w3.org/2000/svg">
<circle cx="11.0251" cy="11.0251" r="10.3096" stroke="white" stroke-width="1.10277"/>
<path d="M9.10736 1.00977C6.68461 1.54836 1.98638 3.6498 3.65548 11.3016C4.3132 14.3169 9.12955 18.9958 16.0671 14.7448C16.7331 15.9351 17.6074 18.3566 13.7645 20.8731" stroke="white" stroke-width="1.10277"/>
<path d="M9.18167 0.957031C7.46253 1.71525 4.77367 3.66679 6.06676 7.47554C6.29283 8.49983 7.44193 10.4086 9.9585 11.0887C12.1342 11.6767 14.6346 11.8326 16.0268 14.6914" stroke="white" stroke-width="1.10277"/>
<path d="M6.10938 7.49934C7.86546 6.12499 12.2494 4.15418 15.7364 7.2658C20.0951 11.1553 21.0716 17.028 14.185 20.7689" stroke="white" stroke-width="1.10277"/>
<path d="M34.2639 18.1822C32.8397 18.1822 31.6506 17.8817 30.6967 17.2806C29.7559 16.6665 29.0503 15.8302 28.5799 14.7718C28.1226 13.7003 27.8939 12.4786 27.8939 11.1066C27.8939 9.74766 28.1291 8.53899 28.5995 7.48059C29.0699 6.40912 29.7755 5.56632 30.7163 4.95219C31.6702 4.32499 32.8658 4.01139 34.3031 4.01139C35.3223 4.01139 36.1978 4.17472 36.9295 4.50139C37.6743 4.81499 38.2754 5.25272 38.7327 5.81459C39.1901 6.37646 39.5037 7.03632 39.6735 7.79419H37.9487C37.7527 7.11472 37.3281 6.57246 36.6747 6.16739C36.0345 5.76232 35.2243 5.55979 34.2443 5.55979C33.1467 5.55979 32.2582 5.82112 31.5787 6.34379C30.9123 6.85339 30.4223 7.52632 30.1087 8.36259C29.7951 9.18579 29.6383 10.0809 29.6383 11.0478C29.6383 12.067 29.8017 13.0013 30.1283 13.8506C30.455 14.6999 30.9646 15.3794 31.6571 15.889C32.3497 16.3855 33.2317 16.6338 34.3031 16.6338C34.9565 16.6338 35.5379 16.5423 36.0475 16.3594C36.5702 16.1765 37.0014 15.9151 37.3411 15.5754C37.6939 15.2357 37.9357 14.8437 38.0663 14.3994H39.9283C39.7323 15.1573 39.3795 15.8237 38.8699 16.3986C38.3734 16.9605 37.7397 17.3982 36.9687 17.7118C36.1978 18.0254 35.2962 18.1822 34.2639 18.1822ZM41.4464 18.0254L46.6012 4.16819H49.0512L54.1864 18.0254H52.344L51.2464 15.0462H44.3864L43.2888 18.0254H41.4464ZM44.9548 13.4978H50.678L47.8164 5.65779L44.9548 13.4978ZM56.8701 18.0254V4.16819H61.6721C62.6913 4.16819 63.5667 4.33806 64.2985 4.67779C65.0302 5.00446 65.5855 5.50752 65.9645 6.18699C66.3565 6.86646 66.5525 7.72886 66.5525 8.77419C66.5525 9.79339 66.3238 10.6558 65.8665 11.3614C65.4222 12.0539 64.8081 12.5766 64.0241 12.9294C63.2401 13.2822 62.3385 13.4586 61.3193 13.4586H58.5753V18.0254H56.8701ZM58.5753 11.9102H61.2409C62.2993 11.9102 63.1551 11.6619 63.8085 11.1654C64.4749 10.6558 64.8081 9.83259 64.8081 8.69579C64.8081 7.70272 64.5402 6.95792 64.0045 6.46139C63.4687 5.96486 62.6651 5.71659 61.5937 5.71659H58.5753V11.9102ZM69.9998 18.0254V4.16819H71.705V18.0254H69.9998ZM78.9127 18.0254V5.71659H74.4635V4.16819H85.0671V5.71659H80.6179V18.0254H78.9127ZM85.3519 18.0254L90.5067 4.16819H92.9567L98.0919 18.0254H96.2495L95.1519 15.0462H88.2919L87.1943 18.0254H85.3519ZM88.8603 13.4978H94.5835L91.7219 5.65779L88.8603 13.4978ZM100.776 18.0254V4.16819H102.481V16.477H110.086V18.0254H100.776Z" fill="white"/>
</svg>
