<svg width="111" height="23" viewBox="0 0 111 23" fill="none" xmlns="http://www.w3.org/2000/svg">
<g clip-path="url(#clip0_11094_4273)">
<circle cx="10.9785" cy="11.0215" r="10.1677" stroke="#090909" stroke-width="1.29354"/>
<path d="M9.06687 1.04883C6.6545 1.58512 1.9764 3.67755 3.63835 11.2966C4.29325 14.2989 9.08897 18.9578 15.9968 14.725C16.6599 15.9102 17.5305 18.3213 13.7041 20.8271" stroke="#090909" stroke-width="1.29354"/>
<path d="M9.14343 0.996094C7.43166 1.75106 4.75432 3.69425 6.04186 7.48667C6.26697 8.50657 7.41115 10.4071 9.91693 11.0844C12.0833 11.6699 14.573 11.8251 15.9592 14.6716" stroke="#090909" stroke-width="1.29354"/>
<path d="M6.08594 7.50881C7.8345 6.14035 12.1996 4.17799 15.6717 7.27628C20.0117 11.1491 20.984 16.9967 14.127 20.7215" stroke="#090909" stroke-width="1.29354"/>
</g>
<path d="M34.1156 17.1776C32.6974 17.1776 31.5134 16.8784 30.5636 16.2799C29.6268 15.6683 28.9242 14.8356 28.4558 13.7817C28.0004 12.7148 27.7727 11.4983 27.7727 10.1322C27.7727 8.77902 28.0069 7.57551 28.4753 6.52162C28.9437 5.45471 29.6463 4.61551 30.5831 4.00399C31.5329 3.37946 32.7234 3.0672 34.1546 3.0672C35.1695 3.0672 36.0412 3.22984 36.7698 3.55511C37.5115 3.86737 38.11 4.30324 38.5653 4.86271C39.0207 5.42219 39.333 6.07924 39.5021 6.83388H37.7847C37.5895 6.15731 37.1667 5.61735 36.5161 5.21401C35.8786 4.81067 35.0719 4.609 34.0961 4.609C33.0031 4.609 32.1184 4.86922 31.4418 5.38966C30.7783 5.89709 30.2904 6.56715 29.9781 7.39986C29.6658 8.21955 29.5097 9.1108 29.5097 10.0736C29.5097 11.0885 29.6723 12.0188 29.9976 12.8645C30.3229 13.7102 30.8303 14.3868 31.5199 14.8942C32.2095 15.3886 33.0877 15.6358 34.1546 15.6358C34.8052 15.6358 35.3842 15.5447 35.8916 15.3626C36.412 15.1804 36.8414 14.9202 37.1797 14.5819C37.531 14.2436 37.7717 13.8533 37.9018 13.4109H39.7559C39.5607 14.1656 39.2094 14.8291 38.702 15.4016C38.2075 15.9611 37.5765 16.397 36.8089 16.7092C36.0412 17.0215 35.1435 17.1776 34.1156 17.1776ZM41.2675 17.0215L46.4003 3.22333H48.8399L53.9532 17.0215H52.1186L51.0257 14.055H44.1949L43.102 17.0215H41.2675ZM44.7609 12.5132H50.4597L47.6103 4.70658L44.7609 12.5132ZM56.6254 17.0215V3.22333H61.4069C62.4218 3.22333 63.2935 3.39247 64.0222 3.73076C64.7508 4.05603 65.3037 4.55696 65.6811 5.23353C66.0714 5.9101 66.2666 6.76882 66.2666 7.8097C66.2666 8.82456 66.0389 9.68329 65.5835 10.3859C65.1411 11.0755 64.5296 11.5959 63.7489 11.9472C62.9683 12.2985 62.0705 12.4741 61.0557 12.4741H58.3233V17.0215H56.6254ZM58.3233 10.9323H60.9776C62.0315 10.9323 62.8837 10.6851 63.5342 10.1907C64.1978 9.68329 64.5296 8.86359 64.5296 7.73164C64.5296 6.7428 64.2629 6.00118 63.7294 5.50676C63.196 5.01234 62.3958 4.76513 61.3289 4.76513H58.3233V10.9323ZM69.6992 17.0215V3.22333H71.3971V17.0215H69.6992ZM78.5741 17.0215V4.76513H74.1439V3.22333H84.7023V4.76513H80.2721V17.0215H78.5741ZM84.9859 17.0215L90.1187 3.22333H92.5583L97.6716 17.0215H95.8371L94.7442 14.055H87.9134L86.8205 17.0215H84.9859ZM88.4794 12.5132H94.1782L91.3288 4.70658L88.4794 12.5132ZM100.344 17.0215V3.22333H102.042V15.4797H109.614V17.0215H100.344Z" fill="#090909"/>
<defs>
<clipPath id="clip0_11094_4273">
<rect width="21.956" height="21.956" fill="white" transform="translate(0 0.0429688)"/>
</clipPath>
</defs>
</svg>
