<svg width="256" height="256" viewBox="0 0 256 256" fill="none" xmlns="http://www.w3.org/2000/svg">
<rect width="256" height="256" rx="48" fill="white"/>
<circle cx="127.992" cy="128.002" r="77.6144" stroke="#090909" stroke-width="8.302"/>
<path d="M113.56 52.5996C95.3202 56.6543 59.9503 72.4747 72.5159 130.08C77.4674 152.78 113.727 188.005 165.955 156.002C170.969 164.963 177.55 183.192 148.62 202.138" stroke="#090909" stroke-width="8.302"/>
<path d="M114.144 52.2051C101.202 57.9132 80.9591 72.6051 90.6939 101.279C92.3959 108.99 101.047 123.359 119.992 128.48C136.371 132.907 155.195 134.08 165.676 155.602" stroke="#090909" stroke-width="8.302"/>
<path d="M91.0156 101.452C104.236 91.1054 137.24 76.2685 163.491 99.6939C196.305 128.976 203.656 173.187 151.812 201.35" stroke="#090909" stroke-width="8.302"/>
</svg>
